<svg width="331" height="81" viewBox="0 0 331 81" fill="none" xmlns="http://www.w3.org/2000/svg">
<path d="M73.2256 0H6.77441C3.03459 0 0 3.03459 0 6.78509V73.2363C0 76.9761 3.03459 80.0107 6.77441 80.0107H73.2256C76.9654 80.0107 80 76.9761 80 73.2363V6.78509C80 3.04528 76.9654 0 73.2256 0ZM40.0053 75.5122C20.398 75.5122 4.49846 59.6127 4.49846 40.0053C4.49846 20.398 20.398 4.49846 40.0053 4.49846C59.6127 4.49846 75.5122 20.398 75.5122 40.0053C75.5122 59.6127 59.6127 75.5122 40.0053 75.5122Z" fill="#01395E"/>
<path d="M36.725 14.7456H32.9852V18.1648H36.725V14.7456Z" fill="#BB5B27"/>
<path d="M31.703 14.7456H27.9738V18.1648H31.703V14.7456Z" fill="#D77228"/>
<path d="M36.725 19.447H32.9852V22.8663H36.725V19.447Z" fill="#FFC313"/>
<path d="M31.703 19.447H27.9738V22.8663H31.703V19.447Z" fill="#ED8D21"/>
<path d="M21.6482 28.7752H17.9084V32.1945H21.6482V28.7752Z" fill="#FFC313"/>
<path d="M26.6916 24.0951H22.9518V27.5144H26.6916V24.0951Z" fill="#D77228"/>
<path d="M21.6482 24.0951H17.9084V27.5144H21.6482V24.0951Z" fill="#ED8D21"/>
<path d="M26.6916 28.7752H22.9518V32.1945H26.6916V28.7752Z" fill="#ED8D21"/>
<path d="M26.6916 33.4446H22.9518V36.8639H26.6916V33.4446Z" fill="#BC602D"/>
<path d="M36.725 38.1675H32.9852V41.5867H36.725V38.1675Z" fill="#D77228"/>
<path d="M41.747 38.1675H38.0072V41.5867H41.747V38.1675Z" fill="#ED8D21"/>
<path d="M46.8225 38.1675H43.0827V41.5867H46.8225V38.1675Z" fill="#FFC313"/>
<path d="M31.703 38.1675H27.9738V41.5867H31.703V38.1675Z" fill="#ED8D21"/>
<path d="M46.8225 42.9117H43.0827V46.331H46.8225V42.9117Z" fill="#ED8D21"/>
<path d="M51.9086 42.9117H48.1688V46.331H51.9086V42.9117Z" fill="#FFC313"/>
<path d="M31.703 42.9117H27.9738V46.331H31.703V42.9117Z" fill="#BC602D"/>
<path d="M46.8225 47.6132H43.0827V51.0325H46.8225V47.6132Z" fill="#D77228"/>
<path d="M51.9086 47.6132H48.1688V51.0325H51.9086V47.6132Z" fill="#ED8D21"/>
<path d="M56.9841 47.6132H53.2443V51.0325H56.9841V47.6132Z" fill="#BB5B27"/>
<path d="M36.725 52.1971H32.9852V55.6164H36.725V52.1971Z" fill="#FFC313"/>
<path d="M41.747 52.1971H38.0072V55.6164H41.747V52.1971Z" fill="#BB5B27"/>
<path d="M46.8225 52.1971H43.0827V55.6164H46.8225V52.1971Z" fill="#ED8D21"/>
<path d="M51.9086 52.1971H48.1688V55.6164H51.9086V52.1971Z" fill="#D77228"/>
<path d="M56.9841 52.1971H53.2443V55.6164H56.9841V52.1971Z" fill="#ED8D21"/>
<path d="M62.0489 52.1971H58.3198V55.6164H62.0489V52.1971Z" fill="#BB5B27"/>
<path d="M41.747 56.7918H38.0072V60.211H41.747V56.7918Z" fill="#FFC313"/>
<path d="M46.8225 56.7918H43.0827V60.211H46.8225V56.7918Z" fill="#BB5B27"/>
<path d="M51.9086 56.7918H48.1688V60.211H51.9086V56.7918Z" fill="#ED8D21"/>
<path d="M41.17 43.446H33.6477V50.3486H41.17V43.446Z" fill="#BB5B27"/>
<path d="M26.1573 14.7456H17.8656V22.3855H26.1573V14.7456Z" fill="#BC602D"/>
<path d="M62.0596 57.4436H53.8533V64.9125H62.0596V57.4436Z" fill="#BB5B27"/>
<path d="M40.9777 25.0247H28.8179V36.1053H40.9777V25.0247Z" fill="#FFC313"/>
<path d="M41.0525 15.6111H39.0437V17.31H41.0525V15.6111Z" fill="#08ACD8"/>
<path d="M41.0525 20.3019H39.0437V22.0008H41.0525V20.3019Z" fill="#0C7DA6"/>
<path d="M61.2154 43.7772H59.2066V45.4762H61.2154V43.7772Z" fill="#01395E"/>
<path d="M61.2154 48.468H59.2066V50.167H61.2154V48.468Z" fill="#01395E"/>
<path d="M46.0745 34.3529H44.055V36.0518H46.0745V34.3529Z" fill="#01395E"/>
<path d="M46.0745 29.7262H44.055V31.4251H46.0745V29.7262Z" fill="#145E89"/>
<path d="M51.182 34.3529H49.1732V36.0518H51.182V34.3529Z" fill="#01395E"/>
<path d="M20.7934 34.3101H18.7739V36.0091H20.7934V34.3101Z" fill="#01395E"/>
<path d="M25.8047 39.0223H23.7852V40.7213H25.8047V39.0223Z" fill="#01395E"/>
<path d="M25.4521 57.9137H22.5778V60.4782H25.4521V57.9137Z" fill="#148FBA"/>
<path d="M25.8047 43.7665H23.7852V45.4762H25.8047V43.7665Z" fill="#01395E"/>
<path d="M20.7934 39.0223H18.7739V40.7213H20.7934V39.0223Z" fill="#01395E"/>
<path d="M20.7934 43.7665H18.7739V45.4762H20.7934V43.7665Z" fill="#01395E"/>
<path d="M20.398 48.3932H18.09V50.3807H20.398V48.3932Z" fill="#145E89"/>
<path d="M19.2974 58.3304H16.4231V60.8949H19.2974V58.3304Z" fill="#148FBA"/>
<path d="M24.0737 63.5875H21.1994V66.152H24.0737V63.5875Z" fill="#08ACD8"/>
<path d="M30.1109 62.8396H27.2365V65.404H30.1109V62.8396Z" fill="#08ACD8"/>
<path d="M25.9543 48.2009H23.6463V50.1883H25.9543V48.2009Z" fill="#145E89"/>
<path d="M30.955 57.5932H28.3692V59.8691H30.955V57.5932Z" fill="#148FBA"/>
<path d="M35.8488 57.6466H33.8293V59.3455H35.8488V57.6466Z" fill="#148FBA"/>
<path d="M30.8268 48.3398H28.8073V50.0387H30.8268V48.3398Z" fill="#145E89"/>
<path d="M40.7319 62.4977H38.7124V64.2073H40.7319V62.4977Z" fill="#08ACD8"/>
<path d="M45.9142 62.3481H43.8947V64.047H45.9142V62.3481Z" fill="#08ACD8"/>
<path d="M35.6137 62.519H33.0172V64.795H35.6137V62.519Z" fill="#08ACD8"/>
<path d="M56.2041 39.0223H54.1846V40.7213H56.2041V39.0223Z" fill="#01395E"/>
<path d="M56.2041 43.7772H54.1846V45.4762H56.2041V43.7772Z" fill="#01395E"/>
<path d="M61.2154 39.0223H59.2066V40.7213H61.2154V39.0223Z" fill="#01395E"/>
<path d="M66.3764 43.7772H64.3676V45.4762H66.3764V43.7772Z" fill="#01395E"/>
<path d="M66.3764 48.468H64.3676V50.167H66.3764V48.468Z" fill="#01395E"/>
<path d="M66.3764 57.6786H64.3676V59.3776H66.3764V57.6786Z" fill="#01395E"/>
<path d="M66.3764 53.052H64.3676V54.7616H66.3764V53.052Z" fill="#01395E"/>
<path d="M15.782 20.2805H13.7732V21.9794H15.782V20.2805Z" fill="#01395E"/>
<path d="M15.3867 43.6276H13.0894V45.6151H15.3867V43.6276Z" fill="#01395E"/>
<path d="M14.8417 48.4894H12.2452V50.7653H14.8417V48.4894Z" fill="#145E89"/>
<path d="M15.782 24.9606H13.7732V26.6595H15.782V24.9606Z" fill="#01395E"/>
<path d="M15.782 29.63H13.7732V31.3397H15.782V29.63Z" fill="#01395E"/>
<path d="M15.782 34.3101H13.7732V36.0091H15.782V34.3101Z" fill="#01395E"/>
<path d="M15.6859 39.0223H13.6664V40.7213H15.6859V39.0223Z" fill="#01395E"/>
<path d="M51.182 39.0223H49.1732V40.7213H51.182V39.0223Z" fill="#01395E"/>
<path d="M51.0431 62.3481H49.0236V64.047H51.0431V62.3481Z" fill="#08ACD8"/>
<path d="M57.0375 24.5225H54.4517V26.7985H57.0375V24.5225Z" fill="#0C7DA6"/>
<path d="M57.4115 19.2868H54.5372V21.8512H57.4115V19.2868Z" fill="#0C7DA6"/>
<path d="M56.3537 34.214H54.0457V36.2014H56.3537V34.214Z" fill="#01395E"/>
<path d="M61.6001 34.214H59.3028V36.2014H61.6001V34.214Z" fill="#01395E"/>
<path d="M62.0489 29.1812H59.4631V31.4572H62.0489V29.1812Z" fill="#145E89"/>
<path d="M62.861 24.3409H60.2645V26.6168H62.861V24.3409Z" fill="#0C7DA6"/>
<path d="M63.5662 18.8807H60.6919V21.4452H63.5662V18.8807Z" fill="#0C7DA6"/>
<path d="M56.5033 29.4377H53.9068V31.7136H56.5033V29.4377Z" fill="#145E89"/>
<path d="M51.4705 24.7255H48.8847V27.0015H51.4705V24.7255Z" fill="#0C7DA6"/>
<path d="M46.2348 24.8431H43.9054V26.8946H46.2348V24.8431Z" fill="#0C7DA6"/>
<path d="M51.8552 19.6714H48.9809V22.2359H51.8552V19.6714Z" fill="#0C7DA6"/>
<path d="M46.3203 20.1309H43.9909V22.1718H46.3203V20.1309Z" fill="#0C7DA6"/>
<path d="M51.3423 29.5873H49.0343V31.5747H51.3423V29.5873Z" fill="#145E89"/>
<path d="M66.9641 34.214H64.6668V36.2014H66.9641V34.214Z" fill="#01395E"/>
<path d="M67.7548 28.9996H65.1583V31.2755H67.7548V28.9996Z" fill="#145E89"/>
<path d="M66.5153 38.8834H64.218V40.8708H66.5153V38.8834Z" fill="#01395E"/>
<path d="M68.9088 23.9989H66.323V26.2749H68.9088V23.9989Z" fill="#0C7DA6"/>
<path d="M58.448 13.8694H55.5737V16.4231H58.448V13.8694Z" fill="#08ACD8"/>
<path d="M52.4215 14.4464H49.5472V17.0108H52.4215V14.4464Z" fill="#08ACD8"/>
<path d="M46.5554 15.205H44.226V17.2566H46.5554V15.205Z" fill="#08ACD8"/>
<path d="M25.5055 52.9558H22.9197V55.2317H25.5055V52.9558Z" fill="#0C7DA6"/>
<path d="M19.6928 53.1374H17.107V55.4134H19.6928V53.1374Z" fill="#0C7DA6"/>
<path d="M30.7947 53.0306H28.7752V54.7402H30.7947V53.0306Z" fill="#0C7DA6"/>
<path d="M13.7305 53.4794H11.1447V55.7553H13.7305V53.4794Z" fill="#0C7DA6"/>
<path d="M98.0696 24.0719C96.6906 24.0719 95.5131 23.7553 94.5371 23.1221C93.5683 22.4889 92.8257 21.5782 92.3095 20.3901C91.8003 19.2019 91.5457 17.7683 91.5457 16.0893C91.5457 14.4174 91.8003 12.9944 92.3095 11.8205C92.8187 10.6466 93.5577 9.75375 94.5265 9.14189C95.5025 8.52292 96.6835 8.21344 98.0696 8.21344C99.1516 8.21344 100.11 8.4411 100.944 8.89644C101.779 9.34466 102.451 9.94584 102.96 10.7C103.469 11.4541 103.77 12.283 103.862 13.1865H101.772C101.659 12.5818 101.443 12.034 101.125 11.5431C100.806 11.0522 100.389 10.6609 99.8729 10.3692C99.3567 10.0775 98.7379 9.93161 98.0166 9.93161C97.0901 9.93161 96.3051 10.1522 95.6616 10.5933C95.0251 11.0273 94.5407 11.6996 94.2083 12.6103C93.883 13.5209 93.7203 14.6877 93.7203 16.1106C93.7203 18.2592 94.0845 19.8387 94.813 20.8489C95.5484 21.8521 96.6163 22.3537 98.0166 22.3537C98.7379 22.3537 99.3567 22.2007 99.8729 21.8948C100.389 21.5889 100.806 21.1798 101.125 20.6675C101.443 20.1553 101.659 19.6003 101.772 19.0027H103.862C103.784 19.6573 103.607 20.2905 103.331 20.9023C103.062 21.507 102.691 22.0478 102.217 22.5244C101.743 23.0011 101.16 23.3782 100.467 23.6557C99.781 23.9331 98.9819 24.0719 98.0696 24.0719Z" fill="#01395E"/>
<path d="M109.349 24.0719C108.635 24.0719 108.005 23.9473 107.461 23.6983C106.923 23.4422 106.499 23.0758 106.188 22.5991C105.884 22.1225 105.732 21.5462 105.732 20.8703C105.732 19.6466 106.156 18.7359 107.004 18.1383C107.853 17.5407 109.214 17.2205 111.089 17.1778L113.04 17.1245V16.26C113.04 15.5842 112.839 15.0506 112.436 14.6593C112.033 14.2608 111.41 14.0616 110.569 14.0616C109.939 14.0687 109.384 14.2181 108.903 14.5098C108.422 14.8015 108.115 15.2782 107.98 15.9399H106.251C106.294 15.2213 106.492 14.6166 106.845 14.1257C107.206 13.6276 107.712 13.2506 108.362 12.9944C109.013 12.7383 109.78 12.6103 110.664 12.6103C111.619 12.6103 112.411 12.7454 113.04 13.0158C113.677 13.2861 114.151 13.6846 114.462 14.211C114.78 14.7375 114.939 15.3849 114.939 16.1533V23.8584H113.263L113.115 21.7881C112.697 22.6489 112.16 23.2466 111.502 23.5809C110.852 23.9082 110.134 24.0719 109.349 24.0719ZM109.932 22.6525C110.307 22.6525 110.675 22.5849 111.035 22.4497C111.403 22.3146 111.736 22.1331 112.033 21.9055C112.337 21.6707 112.581 21.411 112.765 21.1264C112.948 20.8347 113.04 20.5359 113.04 20.23V18.3411L111.417 18.3731C110.576 18.3873 109.876 18.4727 109.317 18.6292C108.758 18.7857 108.338 19.0312 108.055 19.3656C107.772 19.6999 107.63 20.1375 107.63 20.6782C107.63 21.2972 107.846 21.781 108.277 22.1296C108.709 22.4782 109.26 22.6525 109.932 22.6525Z" fill="#01395E"/>
<path d="M120.768 23.9972C120.174 23.9972 119.693 23.9153 119.325 23.7517C118.965 23.5881 118.685 23.3675 118.487 23.09C118.296 22.8126 118.165 22.496 118.095 22.1402C118.031 21.7774 117.999 21.4039 117.999 21.0197V8H119.93V20.8276C119.93 21.3825 120.036 21.7987 120.248 22.0762C120.467 22.3537 120.772 22.5066 121.16 22.5351L121.755 22.5458V23.8264C121.592 23.8762 121.422 23.9153 121.245 23.9438C121.069 23.9794 120.909 23.9972 120.768 23.9972Z" fill="#01395E"/>
<path d="M124.372 23.8584V12.8237H126.27V23.8584H124.372ZM124.318 10.4865V8.43755H126.323V10.4865H124.318Z" fill="#01395E"/>
<path d="M130.918 23.8584V14.2644H128.595V12.8237H130.918V11.1162C130.918 10.2411 131.137 9.57588 131.576 9.12055C132.021 8.6581 132.686 8.42687 133.57 8.42687H135.639L135.649 9.82489H134.016C133.563 9.82489 133.255 9.94584 133.093 10.1877C132.93 10.4296 132.849 10.796 132.849 11.2869V12.8237H135.543V14.2644H132.881V23.8584H130.918Z" fill="#01395E"/>
<path d="M141.582 24.0719C140.571 24.0719 139.687 23.8549 138.93 23.4209C138.181 22.9798 137.597 22.3359 137.18 21.4893C136.763 20.6426 136.554 19.6075 136.554 18.3837C136.554 17.2312 136.749 16.2209 137.138 15.3529C137.527 14.4849 138.096 13.8126 138.845 13.3359C139.595 12.8521 140.511 12.6103 141.593 12.6103C142.604 12.6103 143.481 12.8344 144.224 13.2826C144.966 13.7237 145.543 14.3747 145.953 15.2355C146.37 16.0964 146.579 17.1458 146.579 18.3837C146.579 19.5078 146.388 20.4968 146.006 21.3505C145.624 22.2043 145.062 22.873 144.319 23.3568C143.584 23.8335 142.671 24.0719 141.582 24.0719ZM141.593 22.5138C142.244 22.5138 142.795 22.3466 143.248 22.0122C143.7 21.6778 144.043 21.1976 144.277 20.5715C144.517 19.9454 144.637 19.2019 144.637 18.3411C144.637 17.5513 144.531 16.8434 144.319 16.2174C144.114 15.5842 143.789 15.0826 143.343 14.7126C142.898 14.3427 142.314 14.1577 141.593 14.1577C140.928 14.1577 140.366 14.3249 139.906 14.6593C139.447 14.9865 139.096 15.4632 138.856 16.0893C138.623 16.7154 138.506 17.466 138.506 18.3411C138.506 19.1165 138.609 19.8209 138.814 20.4541C139.026 21.0873 139.358 21.5889 139.811 21.9588C140.27 22.3288 140.864 22.5138 141.593 22.5138Z" fill="#01395E"/>
<path d="M149.187 23.8584V12.8237H151.054V14.9474C151.238 14.4209 151.496 13.9869 151.828 13.6454C152.16 13.2968 152.539 13.0371 152.963 12.8664C153.394 12.6956 153.84 12.6103 154.3 12.6103C154.462 12.6103 154.621 12.6209 154.777 12.6423C154.933 12.6636 155.053 12.6992 155.138 12.749V14.6593C155.032 14.6095 154.894 14.5774 154.724 14.5632C154.561 14.5419 154.423 14.5312 154.31 14.5312C153.872 14.5027 153.462 14.5312 153.08 14.6166C152.698 14.6948 152.362 14.8336 152.072 15.0328C151.782 15.232 151.552 15.4952 151.383 15.8225C151.22 16.1426 151.139 16.5339 151.139 16.9964V23.8584H149.187Z" fill="#01395E"/>
<path d="M157.368 23.8584V12.8237H159.267V14.4245C159.444 14.1185 159.688 13.8304 159.999 13.5601C160.317 13.2897 160.699 13.0727 161.145 12.9091C161.597 12.7454 162.117 12.6636 162.704 12.6636C163.397 12.6636 164.033 12.8023 164.613 13.0798C165.2 13.3573 165.667 13.7913 166.014 14.3818C166.367 14.9652 166.544 15.7193 166.544 16.6442V23.8584H164.581V16.8363C164.581 15.9755 164.355 15.3387 163.903 14.9261C163.457 14.5063 162.877 14.2964 162.163 14.2964C161.668 14.2964 161.205 14.3782 160.773 14.5419C160.342 14.6984 159.992 14.9403 159.723 15.2676C159.454 15.5877 159.32 15.9932 159.32 16.4841V23.8584H157.368Z" fill="#01395E"/>
<path d="M169.878 23.8584V12.8237H171.777V23.8584H169.878ZM169.825 10.4865V8.43755H171.83V10.4865H169.825Z" fill="#01395E"/>
<path d="M177.931 24.0719C177.217 24.0719 176.587 23.9473 176.043 23.6983C175.505 23.4422 175.081 23.0758 174.77 22.5991C174.466 22.1225 174.314 21.5462 174.314 20.8703C174.314 19.6466 174.738 18.7359 175.587 18.1383C176.435 17.5407 177.797 17.2205 179.671 17.1778L181.622 17.1245V16.26C181.622 15.5842 181.421 15.0506 181.018 14.6593C180.615 14.2608 179.992 14.0616 179.151 14.0616C178.521 14.0687 177.966 14.2181 177.485 14.5098C177.004 14.8015 176.697 15.2782 176.562 15.9399H174.833C174.876 15.2213 175.074 14.6166 175.427 14.1257C175.788 13.6276 176.294 13.2506 176.944 12.9944C177.595 12.7383 178.362 12.6103 179.246 12.6103C180.201 12.6103 180.993 12.7454 181.622 13.0158C182.259 13.2861 182.733 13.6846 183.044 14.211C183.362 14.7375 183.521 15.3849 183.521 16.1533V23.8584H181.845L181.697 21.7881C181.28 22.6489 180.742 23.2466 180.084 23.5809C179.434 23.9082 178.716 24.0719 177.931 24.0719ZM178.514 22.6525C178.889 22.6525 179.257 22.5849 179.618 22.4497C179.985 22.3146 180.318 22.1331 180.615 21.9055C180.919 21.6707 181.163 21.411 181.347 21.1264C181.531 20.8347 181.622 20.5359 181.622 20.23V18.3411L179.999 18.3731C179.158 18.3873 178.458 18.4727 177.899 18.6292C177.34 18.7857 176.92 19.0312 176.637 19.3656C176.354 19.6999 176.212 20.1375 176.212 20.6782C176.212 21.2972 176.428 21.781 176.86 22.1296C177.291 22.4782 177.843 22.6525 178.514 22.6525Z" fill="#01395E"/>
<path d="M192.143 23.8584V8.42687C192.193 8.42687 192.341 8.43043 192.589 8.43755C192.844 8.43755 193.151 8.43755 193.512 8.43755C193.873 8.43043 194.247 8.43043 194.636 8.43755C195.025 8.43755 195.382 8.4411 195.708 8.44822C197.589 8.47668 199.113 8.78616 200.28 9.37667C201.454 9.96007 202.313 10.8103 202.857 11.9273C203.409 13.0442 203.685 14.4174 203.685 16.0466C203.685 17.7541 203.388 19.1877 202.794 20.3474C202.207 21.507 201.309 22.3821 200.099 22.9727C198.897 23.5632 197.366 23.8584 195.506 23.8584H192.143ZM194.159 22.1616H195.506C196.772 22.1616 197.861 21.9659 198.773 21.5746C199.686 21.1762 200.386 20.5323 200.874 19.643C201.369 18.7537 201.616 17.5656 201.616 16.0786C201.616 14.5917 201.376 13.4142 200.895 12.5462C200.421 11.6782 199.735 11.0593 198.837 10.6893C197.939 10.3122 196.857 10.1237 195.591 10.1237H194.159V22.1616Z" fill="#01395E"/>
<path d="M210.874 24.0719C209.856 24.0719 208.958 23.8477 208.18 23.3995C207.402 22.9513 206.794 22.3074 206.355 21.4679C205.917 20.6284 205.697 19.6217 205.697 18.4478C205.697 17.2881 205.895 16.2707 206.291 15.3956C206.687 14.5205 207.26 13.8375 208.01 13.3466C208.767 12.8557 209.675 12.6103 210.736 12.6103C211.769 12.6103 212.642 12.8344 213.356 13.2826C214.071 13.7308 214.612 14.364 214.979 15.1822C215.354 15.9932 215.542 16.9573 215.542 18.0743V18.7999H207.681C207.681 19.4972 207.794 20.1304 208.021 20.6995C208.254 21.2616 208.604 21.7098 209.071 22.0442C209.537 22.3786 210.128 22.5458 210.842 22.5458C211.542 22.5458 212.144 22.3821 212.646 22.0549C213.155 21.7276 213.48 21.2545 213.622 20.6355H215.467C215.34 21.3825 215.043 22.0122 214.576 22.5244C214.117 23.0367 213.561 23.4244 212.911 23.6877C212.267 23.9438 211.588 24.0719 210.874 24.0719ZM207.692 17.466H213.653C213.653 16.8328 213.547 16.2636 213.335 15.7585C213.123 15.2462 212.798 14.8442 212.359 14.5525C211.928 14.2537 211.383 14.1043 210.726 14.1043C210.04 14.1043 209.47 14.2715 209.018 14.6059C208.565 14.9332 208.229 15.3565 208.01 15.8758C207.791 16.3881 207.685 16.9181 207.692 17.466Z" fill="#01395E"/>
<path d="M218.255 27.2948V12.8237H220.207L220.228 14.7446C220.356 14.517 220.518 14.2786 220.716 14.0296C220.921 13.7806 221.169 13.5494 221.459 13.3359C221.756 13.1225 222.099 12.9482 222.488 12.813C222.884 12.6778 223.333 12.6103 223.835 12.6103C224.712 12.6103 225.483 12.813 226.148 13.2185C226.819 13.617 227.343 14.2288 227.718 15.0541C228.092 15.8794 228.28 16.9252 228.28 18.1916C228.28 19.458 228.096 20.5288 227.728 21.4039C227.367 22.2719 226.844 22.9335 226.158 23.3889C225.472 23.8442 224.645 24.0719 223.676 24.0719C223.188 24.0719 222.753 24.0007 222.371 23.8584C221.996 23.7232 221.667 23.5454 221.385 23.3248C221.109 23.0972 220.875 22.8553 220.684 22.5991C220.501 22.343 220.349 22.0976 220.228 21.8628V27.2948H218.255ZM223.305 22.5351C224.21 22.5351 224.949 22.19 225.522 21.4999C226.095 20.8027 226.381 19.7213 226.381 18.2557C226.381 16.9964 226.119 15.9968 225.596 15.2569C225.073 14.517 224.309 14.147 223.305 14.147C222.286 14.147 221.515 14.5276 220.992 15.2889C220.469 16.043 220.207 17.032 220.207 18.2557C220.207 19.0454 220.324 19.764 220.557 20.4114C220.791 21.0588 221.137 21.5746 221.597 21.9588C222.056 22.343 222.626 22.5351 223.305 22.5351Z" fill="#01395E"/>
<path d="M233.527 24.0719C232.813 24.0719 232.184 23.9473 231.639 23.6983C231.102 23.4422 230.677 23.0758 230.366 22.5991C230.062 22.1225 229.91 21.5462 229.91 20.8703C229.91 19.6466 230.334 18.7359 231.183 18.1383C232.032 17.5407 233.393 17.2205 235.267 17.1778L237.219 17.1245V16.26C237.219 15.5842 237.017 15.0506 236.614 14.6593C236.211 14.2608 235.589 14.0616 234.747 14.0616C234.118 14.0687 233.563 14.2181 233.082 14.5098C232.601 14.8015 232.293 15.2782 232.159 15.9399H230.43C230.472 15.2213 230.67 14.6166 231.024 14.1257C231.385 13.6276 231.89 13.2506 232.541 12.9944C233.191 12.7383 233.959 12.6103 234.843 12.6103C235.797 12.6103 236.59 12.7454 237.219 13.0158C237.855 13.2861 238.329 13.6846 238.64 14.211C238.959 14.7375 239.118 15.3849 239.118 16.1533V23.8584H237.442L237.293 21.7881C236.876 22.6489 236.338 23.2466 235.681 23.5809C235.03 23.9082 234.312 24.0719 233.527 24.0719ZM234.111 22.6525C234.486 22.6525 234.853 22.5849 235.214 22.4497C235.582 22.3146 235.914 22.1331 236.211 21.9055C236.515 21.6707 236.759 21.411 236.943 21.1264C237.127 20.8347 237.219 20.5359 237.219 20.23V18.3411L235.596 18.3731C234.754 18.3873 234.054 18.4727 233.496 18.6292C232.937 18.7857 232.516 19.0312 232.233 19.3656C231.95 19.6999 231.809 20.1375 231.809 20.6782C231.809 21.2972 232.025 21.781 232.456 22.1296C232.887 22.4782 233.439 22.6525 234.111 22.6525Z" fill="#01395E"/>
<path d="M242.178 23.8584V12.8237H244.045V14.9474C244.229 14.4209 244.487 13.9869 244.819 13.6454C245.152 13.2968 245.53 13.0371 245.954 12.8664C246.386 12.6956 246.831 12.6103 247.291 12.6103C247.454 12.6103 247.613 12.6209 247.768 12.6423C247.924 12.6636 248.044 12.6992 248.129 12.749V14.6593C248.023 14.6095 247.885 14.5774 247.715 14.5632C247.553 14.5419 247.415 14.5312 247.301 14.5312C246.863 14.5027 246.453 14.5312 246.071 14.6166C245.689 14.6948 245.353 14.8336 245.063 15.0328C244.773 15.232 244.543 15.4952 244.374 15.8225C244.211 16.1426 244.13 16.5339 244.13 16.9964V23.8584H242.178Z" fill="#01395E"/>
<path d="M254.281 23.9118C253.524 23.9118 252.937 23.8086 252.52 23.6023C252.103 23.396 251.809 23.09 251.64 22.6845C251.477 22.279 251.396 21.781 251.396 21.1904V14.2644H249.613V12.8237H251.449L251.926 9.61145H253.369V12.813H255.84V14.2644H253.369V21.1264C253.369 21.5177 253.408 21.8059 253.485 21.9908C253.57 22.1687 253.708 22.2825 253.899 22.3323C254.09 22.3821 254.359 22.407 254.705 22.407H255.904V23.7304C255.77 23.7802 255.565 23.8228 255.289 23.8584C255.02 23.894 254.684 23.9118 254.281 23.9118Z" fill="#01395E"/>
<path d="M258.507 23.8584V12.8237H260.395V14.4245C260.699 13.9407 261.116 13.5174 261.647 13.1545C262.177 12.7917 262.867 12.6103 263.715 12.6103C264.111 12.6103 264.514 12.6778 264.924 12.813C265.342 12.9482 265.724 13.151 266.07 13.4213C266.417 13.6917 266.685 14.0225 266.876 14.4138C267.216 13.8731 267.675 13.4391 268.255 13.1118C268.835 12.7774 269.489 12.6103 270.218 12.6103C270.6 12.6103 270.999 12.6707 271.417 12.7917C271.834 12.9055 272.219 13.1118 272.573 13.4106C272.933 13.7023 273.227 14.1114 273.453 14.6379C273.68 15.1573 273.793 15.826 273.793 16.6442V23.8584H271.82V16.8363C271.82 16.1675 271.714 15.6517 271.501 15.2889C271.289 14.9189 271.01 14.6593 270.663 14.5098C270.324 14.3604 269.96 14.2857 269.571 14.2857C269.231 14.2857 268.871 14.3533 268.489 14.4885C268.107 14.6237 267.782 14.8513 267.513 15.1715C267.244 15.4917 267.11 15.9292 267.11 16.4841V23.8584H265.158V16.26C265.158 15.826 265.041 15.4632 264.808 15.1715C264.581 14.8798 264.295 14.6593 263.949 14.5098C263.609 14.3604 263.27 14.2857 262.93 14.2857C262.555 14.2857 262.177 14.3604 261.795 14.5098C261.42 14.6593 261.102 14.8976 260.84 15.2249C260.586 15.545 260.458 15.9648 260.458 16.4841V23.8584H258.507Z" fill="#01395E"/>
<path d="M281.499 24.0719C280.481 24.0719 279.583 23.8477 278.805 23.3995C278.027 22.9513 277.419 22.3074 276.98 21.4679C276.542 20.6284 276.322 19.6217 276.322 18.4478C276.322 17.2881 276.52 16.2707 276.916 15.3956C277.312 14.5205 277.885 13.8375 278.635 13.3466C279.392 12.8557 280.3 12.6103 281.361 12.6103C282.394 12.6103 283.267 12.8344 283.981 13.2826C284.696 13.7308 285.237 14.364 285.604 15.1822C285.979 15.9932 286.167 16.9573 286.167 18.0743V18.7999H278.306C278.306 19.4972 278.419 20.1304 278.646 20.6995C278.879 21.2616 279.229 21.7098 279.696 22.0442C280.162 22.3786 280.753 22.5458 281.467 22.5458C282.167 22.5458 282.768 22.3821 283.271 22.0549C283.78 21.7276 284.105 21.2545 284.246 20.6355H286.092C285.965 21.3825 285.668 22.0122 285.201 22.5244C284.742 23.0367 284.186 23.4244 283.536 23.6877C282.892 23.9438 282.213 24.0719 281.499 24.0719ZM278.317 17.466H284.278C284.278 16.8328 284.172 16.2636 283.96 15.7585C283.748 15.2462 283.423 14.8442 282.984 14.5525C282.553 14.2537 282.008 14.1043 281.351 14.1043C280.665 14.1043 280.095 14.2715 279.643 14.6059C279.19 14.9332 278.854 15.3565 278.635 15.8758C278.416 16.3881 278.31 16.9181 278.317 17.466Z" fill="#01395E"/>
<path d="M288.88 23.8584V12.8237H290.779V14.4245C290.956 14.1185 291.2 13.8304 291.511 13.5601C291.829 13.2897 292.211 13.0727 292.657 12.9091C293.109 12.7454 293.629 12.6636 294.216 12.6636C294.909 12.6636 295.545 12.8023 296.125 13.0798C296.712 13.3573 297.179 13.7913 297.526 14.3818C297.879 14.9652 298.056 15.7193 298.056 16.6442V23.8584H296.094V16.8363C296.094 15.9755 295.867 15.3387 295.415 14.9261C294.969 14.5063 294.389 14.2964 293.675 14.2964C293.18 14.2964 292.717 14.3782 292.285 14.5419C291.854 14.6984 291.504 14.9403 291.235 15.2676C290.966 15.5877 290.832 15.9932 290.832 16.4841V23.8584H288.88Z" fill="#01395E"/>
<path d="M304.477 23.9118C303.721 23.9118 303.134 23.8086 302.716 23.6023C302.299 23.396 302.006 23.09 301.836 22.6845C301.673 22.279 301.592 21.781 301.592 21.1904V14.2644H299.81V12.8237H301.645L302.122 9.61145H303.565V12.813H306.037V14.2644H303.565V21.1264C303.565 21.5177 303.604 21.8059 303.682 21.9908C303.767 22.1687 303.905 22.2825 304.095 22.3323C304.286 22.3821 304.555 22.407 304.902 22.407H306.1V23.7304C305.966 23.7802 305.761 23.8228 305.485 23.8584C305.216 23.894 304.88 23.9118 304.477 23.9118Z" fill="#01395E"/>
<path d="M317.56 24.0719C316.549 24.0719 315.665 23.8549 314.908 23.4209C314.158 22.9798 313.575 22.3359 313.158 21.4893C312.74 20.6426 312.532 19.6075 312.532 18.3837C312.532 17.2312 312.726 16.2209 313.115 15.3529C313.504 14.4849 314.073 13.8126 314.823 13.3359C315.573 12.8521 316.489 12.6103 317.571 12.6103C318.582 12.6103 319.459 12.8344 320.201 13.2826C320.944 13.7237 321.52 14.3747 321.93 15.2355C322.348 16.0964 322.556 17.1458 322.556 18.3837C322.556 19.5078 322.365 20.4968 321.983 21.3505C321.602 22.2043 321.039 22.873 320.297 23.3568C319.561 23.8335 318.649 24.0719 317.56 24.0719ZM317.571 22.5138C318.221 22.5138 318.773 22.3466 319.225 22.0122C319.678 21.6778 320.021 21.1976 320.254 20.5715C320.495 19.9454 320.615 19.2019 320.615 18.3411C320.615 17.5513 320.509 16.8434 320.297 16.2174C320.092 15.5842 319.766 15.0826 319.321 14.7126C318.875 14.3427 318.292 14.1577 317.571 14.1577C316.906 14.1577 316.344 14.3249 315.884 14.6593C315.424 14.9865 315.074 15.4632 314.834 16.0893C314.6 16.7154 314.484 17.466 314.484 18.3411C314.484 19.1165 314.586 19.8209 314.791 20.4541C315.003 21.0873 315.336 21.5889 315.788 21.9588C316.248 22.3288 316.842 22.5138 317.571 22.5138Z" fill="#01395E"/>
<path d="M325.769 23.8584V14.2644H323.446V12.8237H325.769V11.1162C325.769 10.2411 325.988 9.57588 326.427 9.12055C326.872 8.6581 327.537 8.42687 328.421 8.42687H330.489L330.5 9.82489H328.866C328.414 9.82489 328.106 9.94584 327.943 10.1877C327.781 10.4296 327.699 10.796 327.699 11.2869V12.8237H330.394V14.2644H327.731V23.8584H325.769Z" fill="#01395E"/>
<path d="M101.708 70.1951V42.1932H91.5V37.1953H117.088V42.1932H107.243V70.1951H101.708Z" fill="#01395E"/>
<path d="M124.379 70.6515C122.126 70.6515 120.137 70.1723 118.413 69.2138C116.704 68.24 115.366 66.8555 114.398 65.0603C113.445 63.265 112.969 61.1274 112.969 58.6474C112.969 56.2284 113.4 54.0832 114.262 52.2118C115.139 50.3252 116.402 48.8418 118.05 47.7616C119.714 46.6814 121.718 46.1413 124.062 46.1413C126.376 46.1413 128.319 46.6358 129.892 47.6247C131.465 48.6136 132.659 49.9981 133.476 51.7782C134.293 53.5431 134.701 55.6122 134.701 57.9856V59.6744H118.481C118.466 61.0133 118.678 62.2 119.117 63.2346C119.555 64.2691 120.205 65.0831 121.067 65.6764C121.929 66.2546 122.996 66.5437 124.266 66.5437C125.567 66.5437 126.693 66.2546 127.646 65.6764C128.614 65.0831 129.257 64.1854 129.574 62.9835H134.61C134.338 64.6267 133.688 66.0188 132.659 67.1598C131.646 68.3009 130.406 69.1681 128.939 69.7615C127.487 70.3548 125.967 70.6515 124.379 70.6515ZM118.459 56.2284H129.483C129.483 55.0873 129.279 54.0603 128.871 53.1475C128.478 52.2194 127.88 51.4891 127.079 50.9566C126.277 50.4089 125.264 50.1351 124.039 50.1351C122.829 50.1351 121.808 50.4317 120.977 51.0251C120.145 51.6184 119.517 52.3868 119.094 53.3301C118.67 54.2581 118.459 55.2242 118.459 56.2284Z" fill="#01395E"/>
<path d="M149.594 70.6515C147.447 70.6515 145.534 70.1799 143.855 69.2366C142.191 68.2781 140.883 66.8936 139.93 65.0831C138.978 63.2574 138.501 61.0589 138.501 58.4877C138.501 56.0382 138.947 53.893 139.84 52.0521C140.747 50.1959 142.025 48.7506 143.673 47.716C145.337 46.6662 147.311 46.1413 149.594 46.1413C151.424 46.1413 153.035 46.5065 154.426 47.2367C155.817 47.967 156.929 48.9788 157.761 50.272C158.608 51.5652 159.114 53.0334 159.28 54.6765H154.585C154.464 53.9614 154.199 53.2844 153.791 52.6454C153.382 51.9912 152.83 51.4663 152.135 51.0707C151.454 50.66 150.622 50.4546 149.639 50.4546C147.87 50.4546 146.441 51.1088 145.352 52.4172C144.263 53.7256 143.719 55.7339 143.719 58.4421C143.719 60.9372 144.233 62.9227 145.261 64.3984C146.305 65.8742 147.794 66.6121 149.73 66.6121C150.698 66.6121 151.53 66.3991 152.226 65.9731C152.921 65.5319 153.466 64.9918 153.859 64.3528C154.267 63.6986 154.524 63.0444 154.63 62.3902H159.212C159.076 63.9877 158.585 65.4102 157.738 66.6578C156.891 67.9053 155.772 68.8866 154.381 69.6017C152.989 70.3016 151.394 70.6515 149.594 70.6515Z" fill="#01395E"/>
<path d="M163.841 70.1951V36.2825H169.285V50.021C169.663 49.4276 170.162 48.8571 170.782 48.3093C171.402 47.7464 172.159 47.29 173.051 46.9401C173.958 46.5749 175.039 46.3923 176.295 46.3923C177.792 46.3923 179.161 46.6814 180.401 47.2596C181.641 47.8377 182.631 48.6745 183.372 49.7699C184.113 50.8501 184.484 52.1433 184.484 53.6496V70.1951H178.949V54.5852C178.949 53.3681 178.518 52.4248 177.656 51.7554C176.809 51.0859 175.735 50.7512 174.435 50.7512C173.573 50.7512 172.748 50.9034 171.962 51.2077C171.176 51.5119 170.54 51.9684 170.056 52.577C169.588 53.1703 169.353 53.9158 169.353 54.8134V70.1951H163.841Z" fill="#01395E"/>
<path d="M189.926 70.1951V46.5977H195.325V49.9753C195.688 49.3667 196.18 48.781 196.8 48.2181C197.435 47.6551 198.214 47.1987 199.136 46.8488C200.059 46.4988 201.14 46.3239 202.38 46.3239C203.832 46.3239 205.178 46.613 206.418 47.1911C207.673 47.7692 208.679 48.6745 209.435 49.9068C210.207 51.1392 210.592 52.7291 210.592 54.6765V70.1951H205.057V55.3383C205.057 53.7865 204.634 52.6378 203.787 51.8923C202.94 51.1316 201.874 50.7512 200.588 50.7512C199.711 50.7512 198.879 50.9034 198.093 51.2077C197.307 51.4967 196.664 51.9456 196.165 52.5541C195.681 53.1475 195.439 53.893 195.439 54.7906V70.1951H189.926Z" fill="#01395E"/>
<path d="M226.015 70.6515C223.777 70.6515 221.826 70.1723 220.162 69.2138C218.499 68.24 217.206 66.8479 216.283 65.0374C215.376 63.2269 214.922 61.0513 214.922 58.5105C214.922 56.0458 215.368 53.8854 216.261 52.0292C217.153 50.1731 218.423 48.7277 220.072 47.6932C221.735 46.6586 223.724 46.1413 226.038 46.1413C228.276 46.1413 230.219 46.6358 231.868 47.6247C233.516 48.6136 234.786 50.0286 235.679 51.8695C236.586 53.7104 237.04 55.9241 237.04 58.5105C237.04 60.8992 236.609 63.0063 235.747 64.832C234.9 66.6425 233.652 68.0651 232.004 69.0997C230.37 70.1342 228.374 70.6515 226.015 70.6515ZM226.038 66.4296C227.308 66.4296 228.352 66.0796 229.168 65.3798C230 64.6799 230.62 63.7214 231.028 62.5043C231.437 61.2871 231.641 59.9026 231.641 58.3508C231.641 56.9054 231.459 55.5742 231.096 54.357C230.733 53.1399 230.136 52.1662 229.304 51.4359C228.488 50.6904 227.399 50.3176 226.038 50.3176C224.752 50.3176 223.686 50.66 222.839 51.3446C222.007 52.014 221.387 52.9573 220.979 54.1744C220.571 55.3764 220.366 56.7685 220.366 58.3508C220.366 59.7809 220.548 61.1122 220.911 62.3445C221.274 63.5617 221.871 64.5506 222.703 65.3113C223.535 66.0568 224.646 66.4296 226.038 66.4296Z" fill="#01395E"/>
<path d="M248.622 70.5374C247.11 70.5374 245.9 70.3472 244.993 69.9669C244.085 69.5865 243.405 69.0768 242.951 68.4378C242.497 67.7988 242.202 67.0838 242.066 66.2926C241.93 65.4863 241.862 64.6647 241.862 63.8279V36.2825H247.261V63.1889C247.261 64.2083 247.465 64.9994 247.873 65.5623C248.297 66.1253 248.977 66.4524 249.915 66.5437L251.095 66.5893V70.081C250.686 70.2027 250.27 70.3092 249.847 70.4005C249.424 70.4918 249.015 70.5374 248.622 70.5374Z" fill="#01395E"/>
<path d="M263.278 70.6515C261.04 70.6515 259.089 70.1723 257.426 69.2138C255.762 68.24 254.469 66.8479 253.546 65.0374C252.639 63.2269 252.185 61.0513 252.185 58.5105C252.185 56.0458 252.631 53.8854 253.524 52.0292C254.416 50.1731 255.686 48.7277 257.335 47.6932C258.998 46.6586 260.987 46.1413 263.301 46.1413C265.539 46.1413 267.482 46.6358 269.131 47.6247C270.779 48.6136 272.05 50.0286 272.942 51.8695C273.849 53.7104 274.303 55.9241 274.303 58.5105C274.303 60.8992 273.872 63.0063 273.01 64.832C272.163 66.6425 270.915 68.0651 269.267 69.0997C267.634 70.1342 265.637 70.6515 263.278 70.6515ZM263.301 66.4296C264.571 66.4296 265.615 66.0796 266.431 65.3798C267.263 64.6799 267.883 63.7214 268.292 62.5043C268.7 61.2871 268.904 59.9026 268.904 58.3508C268.904 56.9054 268.722 55.5742 268.36 54.357C267.997 53.1399 267.399 52.1662 266.567 51.4359C265.751 50.6904 264.662 50.3176 263.301 50.3176C262.015 50.3176 260.949 50.66 260.102 51.3446C259.271 52.014 258.65 52.9573 258.242 54.1744C257.834 55.3764 257.63 56.7685 257.63 58.3508C257.63 59.7809 257.811 61.1122 258.174 62.3445C258.537 63.5617 259.134 64.5506 259.966 65.3113C260.798 66.0568 261.91 66.4296 263.301 66.4296Z" fill="#01395E"/>
<path d="M288.658 78C284.711 78 281.679 77.4675 279.562 76.4025C277.444 75.3375 276.386 73.8769 276.386 72.0208C276.386 71.184 276.59 70.4842 276.998 69.9212C277.406 69.3583 277.89 68.8943 278.45 68.5291C279.01 68.164 279.524 67.8825 279.993 67.6847C280.461 67.4869 280.764 67.3424 280.9 67.2511C280.643 67.099 280.303 66.9012 279.879 66.6578C279.456 66.4143 279.07 66.0796 278.722 65.6536C278.389 65.2276 278.223 64.6723 278.223 63.9877C278.223 63.1965 278.594 62.4662 279.335 61.7968C280.091 61.1274 281.218 60.6481 282.715 60.359C281.248 59.644 280.121 58.6779 279.335 57.4607C278.548 56.2436 278.155 54.9808 278.155 53.6724C278.155 52.1205 278.601 50.7893 279.493 49.6786C280.401 48.568 281.656 47.716 283.259 47.1226C284.862 46.5293 286.73 46.2326 288.862 46.2326C290.42 46.2326 291.713 46.4076 292.741 46.7575C293.785 47.1074 294.753 47.5791 295.645 48.1724C295.947 48.0507 296.371 47.8833 296.915 47.6703C297.46 47.4421 298.057 47.1987 298.707 46.9401C299.358 46.6662 299.985 46.4076 300.59 46.1641C301.195 45.9055 301.702 45.6925 302.11 45.5251L302.087 50.1122L298.027 50.8425C298.223 51.2837 298.375 51.763 298.481 52.2803C298.602 52.7976 298.662 53.254 298.662 53.6496C298.662 55.0188 298.276 56.2892 297.505 57.4607C296.749 58.617 295.607 59.5451 294.08 60.2449C292.567 60.9448 290.677 61.2947 288.409 61.2947C288.182 61.2947 287.872 61.2871 287.478 61.2719C287.085 61.2567 286.768 61.2415 286.526 61.2263C285.301 61.2719 284.461 61.4164 284.008 61.6599C283.554 61.9033 283.327 62.1696 283.327 62.4586C283.327 62.8694 283.667 63.1433 284.348 63.2802C285.029 63.4171 286.117 63.5388 287.615 63.6453C288.144 63.6758 288.84 63.7138 289.702 63.7594C290.564 63.8051 291.524 63.8659 292.583 63.942C295.259 64.1094 297.286 64.7864 298.662 65.9731C300.038 67.1446 300.726 68.666 300.726 70.5374C300.726 72.713 299.728 74.5007 297.732 75.9004C295.736 77.3001 292.711 78 288.658 78ZM289.588 74.7365C291.569 74.7365 293.036 74.4627 293.989 73.915C294.942 73.3673 295.418 72.5609 295.418 71.4959C295.418 70.6743 295.093 70.0049 294.443 69.4876C293.792 68.9703 292.825 68.666 291.539 68.5748L285.618 68.2096C284.968 68.164 284.348 68.2857 283.758 68.5748C283.183 68.8486 282.715 69.2366 282.352 69.7386C281.989 70.2255 281.807 70.7656 281.807 71.359C281.807 72.4696 282.435 73.3064 283.69 73.8693C284.96 74.4475 286.926 74.7365 289.588 74.7365ZM288.59 58.0313C290.027 58.0313 291.191 57.6661 292.083 56.9358C292.976 56.1903 293.422 55.1406 293.422 53.7865C293.422 52.3868 292.976 51.2989 292.083 50.523C291.191 49.7319 290.027 49.3363 288.59 49.3363C287.123 49.3363 285.936 49.7319 285.029 50.523C284.136 51.3142 283.69 52.402 283.69 53.7865C283.69 55.0949 284.121 56.1295 284.983 56.8902C285.845 57.6509 287.047 58.0313 288.59 58.0313Z" fill="#01395E"/>
<path d="M309.952 77.7261C308.439 77.7261 307.388 77.6044 306.798 77.361C306.209 77.1328 305.914 77.0187 305.914 77.0187V73.4585L308.273 73.527C309.226 73.5726 309.997 73.5194 310.587 73.3672C311.192 73.2151 311.66 73.0021 311.993 72.7283C312.326 72.4696 312.568 72.1882 312.719 71.8839C312.885 71.5948 313.014 71.3438 313.105 71.1308L313.717 69.3963L304.575 46.5977H310.065L316.303 63.2802L322.519 46.5977H327.918L318.254 71.0623C317.528 72.8424 316.742 74.2116 315.895 75.1701C315.063 76.1439 314.148 76.8133 313.15 77.1784C312.167 77.5436 311.101 77.7261 309.952 77.7261Z" fill="#01395E"/>
</svg>
