<?xml version="1.0" encoding="utf-8"?>
<!-- Generator: Adobe Illustrator 21.0.2, SVG Export Plug-In . SVG Version: 6.00 Build 0)  -->
<svg version="1.1" id="Layer_1" xmlns="http://www.w3.org/2000/svg" xmlns:xlink="http://www.w3.org/1999/xlink" x="0px" y="0px"
	 viewBox="0 0 747 203" style="enable-background:new 0 0 747 203;" xml:space="preserve">
<style type="text/css">
	.st0{fill:#E12726;}
	.st1{fill:#632466;}
	.st2{fill:#5E7E95;}
</style>
<ellipse transform="matrix(0.7084 -0.7058 0.7058 0.7084 116.741 483.8253)" class="st0" cx="644" cy="100.6" rx="24.2" ry="24.2"/>
<g>
	<path class="st1" d="M18.4,57.3v15.5h-7.7V35H49v6.5H18.5v9.3h25.2v6.4H18.4z"/>
	<path class="st1" d="M81.7,74.1C65.6,74.1,55,65.8,55,53.9C55,42,65.7,33.6,81.7,33.6s26.8,8.5,26.8,20.3
		C108.4,65.8,98.1,74.1,81.7,74.1z M81.7,40c-10.6,0-18.5,5.5-18.5,13.9c0,8.5,7.9,13.8,18.5,13.8c10.6,0,18.6-5.4,18.6-13.8
		C100.2,45.5,92.2,40,81.7,40z"/>
	<path class="st1" d="M153.5,35h7.7v20c0,13.5-9.5,19.2-21.2,19.2c-11.7,0-21.2-5.7-21.2-19.2V35h7.7v20c0,9.5,6.6,12.7,13.5,12.7
		c6.8,0,13.5-3.2,13.5-12.7V35z"/>
	<path class="st1" d="M181.4,47.4v25.4h-7.7V33.6l37.7,27.3V35h7.7v39.1L181.4,47.4z"/>
	<path class="st1" d="M232.2,72.8V35H254c14.4,0,24.6,5.5,24.6,18.9c0,13.5-10.2,18.9-24.6,18.9H232.2z M254,66.4
		c8.3,0,16.4-2.8,16.4-12.5c0-9.6-8.1-12.4-16.4-12.4h-14v24.9H254z"/>
	<path class="st1" d="M323.1,72.8l-4.9-7.9h-22.7l-4.9,7.9h-8.9l25.2-39.1l25.2,39.1H323.1z M306.9,46.2l-7.5,12.3h15L306.9,46.2z"
		/>
	<path class="st1" d="M347.2,72.8V41.5h-18.2V35h44v6.5h-18.2v31.3H347.2z"/>
	<path class="st1" d="M381.8,72.8V35h7.7v37.8H381.8z"/>
	<path class="st1" d="M427.3,74.1c-16.1,0-26.7-8.3-26.7-20.2c0-11.9,10.7-20.3,26.7-20.3s26.8,8.5,26.8,20.3
		C454.1,65.8,443.7,74.1,427.3,74.1z M427.3,40c-10.6,0-18.5,5.5-18.5,13.9c0,8.5,7.9,13.8,18.5,13.8c10.6,0,18.6-5.4,18.6-13.8
		C445.9,45.5,437.9,40,427.3,40z"/>
	<path class="st1" d="M472.9,47.4v25.4h-7.7V33.6l37.7,27.3V35h7.7v39.1L472.9,47.4z"/>
</g>
<path class="st2" d="M17.3,109.6v11.3h-6.7V90h31v5.9H17.4v8.2h19.9v5.5H17.3z"/>
<path class="st2" d="M66,122.1c-11.9,0-21.8-6.3-21.8-16.6c0-10.4,9.9-16.7,21.8-16.7c12,0,21.8,6.3,21.8,16.7
	C87.8,115.8,78,122.1,66,122.1z M66,94.6c-8.4,0-14.6,4.2-14.6,10.9c0,6.6,6.2,10.8,14.6,10.8c8.4,0,14.6-4.2,14.6-10.8
	C80.6,98.8,74.4,94.6,66,94.6z"/>
<path class="st2" d="M121.3,120.9l-6.6-10h-13.4v10h-6.7V90h21.1c8.9,0,12.2,5.7,12.2,10.4c0,3.6-1.8,7.6-6.4,9.5l7.3,11H121.3z
	 M101.3,95.9v9.1h13.4c5.1,0,6-2.5,6-4.6c0-2-0.9-4.5-6-4.5H101.3z"/>
<path class="st2" d="M181,120.9l-3.8-5.7H157l-3.8,5.7h-7.4l21.4-32.1l21.4,32.1H181z M167.1,100.5l-6.6,9.9h13.4L167.1,100.5z"/>
<g>
	<path class="st0" d="M246.2,117.7c-4.6,3.1-10.3,4.4-16.3,4.4c-14.7,0-24.3-8.2-24.3-18.4c0-10.2,9.7-18.5,24.3-18.5
		c6,0,11.8,1.4,16.3,4.5v6.5c-3.9-2.6-10-5.1-16.3-5.1c-9.7,0-16.8,5.6-16.8,12.6c0,7,7.1,12.6,16.8,12.6c6.3,0,12.4-2.3,16.3-5
		V117.7z"/>
	<path class="st0" d="M277.1,122.1c-14.6,0-24.3-7.6-24.3-18.4c0-10.8,9.7-18.5,24.3-18.5c14.5,0,24.3,7.7,24.3,18.5
		C301.4,114.6,292,122.1,277.1,122.1z M277.1,91.1c-9.7,0-16.8,5-16.8,12.6c0,7.7,7.2,12.6,16.8,12.6c9.7,0,16.9-4.9,16.9-12.6
		C294,96.1,286.7,91.1,277.1,91.1z"/>
	<path class="st0" d="M308.3,120.9V86.6h7v28.5h25.7v5.8H308.3z"/>
	<path class="st0" d="M345.7,120.9V86.6h7v28.5h25.7v5.8H345.7z"/>
	<path class="st0" d="M383.2,120.9V86.6H418v5.9h-27.7v7.8h22.9v5.8h-23v8.9H418v5.8H383.2z"/>
	<path class="st0" d="M449.4,107.7v-5.8h18.9c0.1,0.9,0.2,1.5,0.2,2.3c-0.2,10.8-9.5,17.9-22.2,17.9c-14.7,0-24.3-8.2-24.3-18.4
		c0-10.1,9.7-18.4,24.3-18.4c6.1,0,11.8,1.3,16.4,4.4v6.5c-3.2-2.1-7.6-4-12.7-4.7c-9.2-1.4-20.5,3.1-20.5,12.2
		c0,7.1,7.3,12.6,16.9,12.6c7.1,0,12.9-2.9,14.3-8.6H449.4z"/>
	<path class="st0" d="M474.8,120.9V86.6h34.8v5.9h-27.7v7.8h144.6l0.8,5.8H481.8v8.9h27.8v5.8H474.8z"/>
	<path class="st0" d="M10.4,178.7V134h45.2v7.7h-36v10.2h29.8v7.6H19.5v11.6h36.1v7.6H10.4z"/>
	<path class="st0" d="M66.6,178.7V134h25.7c17,0,29.1,6.5,29.1,22.3c0,15.9-12.1,22.3-29.1,22.3H66.6z M92.3,171.1
		c9.8,0,19.4-3.3,19.4-14.7c0-11.4-9.6-14.6-19.4-14.6H75.8v29.4H92.3z"/>
	<path class="st0" d="M172.4,134h9v23.6c0,15.9-11.2,22.6-25.1,22.6c-13.8,0-25-6.7-25-22.6V134h9.1v23.6c0,11.3,7.8,15,15.9,15
		c8.1,0,16-3.8,16-15V134z"/>
	<path class="st0" d="M244.4,174.5c-6,4.1-13.4,5.8-21.2,5.8c-19,0-31.6-10.7-31.6-23.9c0-13.2,12.6-24,31.6-24
		c7.8,0,15.3,1.8,21.2,5.8v8.4c-5-3.4-13-6.6-21.2-6.6c-12.6,0-21.8,7.3-21.8,16.4c0,9.1,9.3,16.3,21.8,16.3c8.2,0,16.1-3,21.2-6.6
		V174.5z"/>
	<path class="st0" d="M297.8,178.7l-5.8-9.4h-26.8l-5.8,9.4h-10.6l29.8-46.3l29.8,46.3H297.8z M278.6,147.2l-8.9,14.5h17.8
		L278.6,147.2z"/>
	<path class="st0" d="M324,178.7v-37h-21.4V134h52v7.7h-21.5v37H324z"/>
	<path class="st0" d="M362.6,178.7V134h9.1v44.7H362.6z"/>
	<path class="st0" d="M414.2,180.3c-19,0-31.5-9.8-31.5-23.9c0-14,12.6-24,31.5-24s31.6,10,31.6,24
		C445.8,170.4,433.6,180.3,414.2,180.3z M414.2,139.9c-12.6,0-21.8,6.5-21.8,16.4c0,10,9.4,16.3,21.8,16.3
		c12.6,0,21.9-6.3,21.9-16.3C436.2,146.4,426.7,139.9,414.2,139.9z"/>
	<path class="st0" d="M465.9,148.7v30h-9.1v-46.3l44.6,32.3V134h9.1v46.3L465.9,148.7z"/>
</g>
<g>
	<path class="st1" d="M686.3,59c10.6,10.6,16.3,24.2,17.1,38.1l-4.3,0l0,0L687,97.3c1,12.1-3.1,24.5-12.4,33.7
		c-16.7,16.6-43.8,16.6-60.4-0.1c-5.1-5.1-8.6-11.3-10.6-17.8l6.6,0c1.8,4.9,4.6,9.4,8.4,13.3c14.2,14.2,37.3,14.3,51.5,0.1
		c14.2-14.2,14.3-37.3,0.1-51.5C656.1,60.8,633,60.8,618.7,75c-5.3,5.3-8.6,11.8-10,18.6l-6.4,0c1.4-8.5,5.4-16.6,11.9-23.1
		c16.7-16.6,43.8-16.6,60.4,0.1c5.8,5.8,9.6,12.9,11.3,20.4l10.3-0.1c-1.9-10.1-6.7-19.7-14.4-27.4c-20.6-20.6-54.1-20.7-74.7-0.1
		c-8.5,8.5-13.5,19.1-15,30.2l-6.3,0c1.6-12.7,7.2-25,16.9-34.7C625.8,35.9,663.3,35.9,686.3,59z"/>
	<path class="st1" d="M602.6,142.5c-8.3-8.4-13.6-18.6-15.9-29.4l6.5,0c2.2,9.1,6.8,17.8,13.9,24.9c20.6,20.6,54.1,20.7,74.7,0.1
		c9.7-9.6,14.8-22.1,15.5-34.7l6.3,0c-0.6,14.3-6.4,28.4-17.3,39.2C663.1,165.7,625.6,165.6,602.6,142.5z"/>
	<path class="st1" d="M575.6,93.5l-6.3,0c1.6-16.9,8.9-33.4,21.8-46.3c10.7-10.6,23.7-17.4,37.4-20.3l1.1,6.2
		c-12.5,2.7-24.4,8.9-34.1,18.6C583.9,63.4,577.2,78.2,575.6,93.5z"/>
	<path class="st1" d="M559.7,113.1c2.5,17.6,10.6,34.6,24.1,48.2c12.5,12.5,27.8,20.3,44,23.5l0.9-10.2c-13.8-2.9-27-9.8-37.7-20.5
		c-11.5-11.6-18.5-26-21-41l6.4,0c2.4,13.4,8.8,26.2,19.1,36.6c11.2,11.2,25.3,17.8,40,19.7l-0.5,6.3l0,0l-0.9,10.1l0,0l-0.5,6.3
		c-19.8-2.4-39-11.2-54.1-26.4c-14.7-14.8-23.4-33.4-26-52.6L559.7,113.1z"/>
	<path class="st1" d="M704.9,161.5c3.7-3.7,7-7.7,9.9-11.8l5.3,3.4c-3.1,4.5-6.7,8.9-10.8,12.9c-19.1,19.1-44.6,27.9-69.7,26.6
		l0.1-0.8l0,0l0.4-4.9l0.1-0.6l0,0l0.9-10.1l0,0l0.5-6.3c18.6,0.8,37.5-5.9,51.7-20.1c27.1-27,27.1-70.9,0.2-98
		c-15.7-15.8-37.2-22.4-57.7-19.8l-0.2-1.1l0,0l-2.6-15.1c-18,2.4-35.3,10.4-49.1,24.2C569,54.9,560.8,74,559.1,93.5l-6.3,0
		c1.7-21.1,10.6-41.8,26.7-57.9c35.9-35.8,94.3-35.7,130.1,0.2C739.8,66.2,742,120,720.1,153l-5.3-3.4
		c21.2-31.5,18.4-81.1-9.7-109.3c-18-18.1-42.2-26.4-65.8-25l1.7,10.1c20.5-0.9,41.3,6.5,56.9,22.1c29.4,29.5,29.3,77.5-0.2,106.9
		c-14,13.9-32.1,21.2-50.4,21.9l-0.9,10.2C667.7,185.9,688.8,177.6,704.9,161.5z"/>
</g>
</svg>
