<svg viewBox="0 0 3105.55 568.86" xmlns="http://www.w3.org/2000/svg"><path d="m190.85 21.95c-93.28 0-168.9 75.99-168.9 169.73v355.23h3061.66v-524.96z" fill="#121a23"/><g fill="#fff"><path d="m3083.61 21.95v524.96h-3061.66v-355.23c0-93.74 75.62-169.73 168.9-169.73zm21.94-21.95h-2914.7c-105.23 0-190.85 85.99-190.85 191.68v377.18h3105.55z"/><path d="m392.24 368.99c0 33.2-17.56 53.37-50.6 53.37h-96.6c-28.43 0-50.18-16.81-50.18-52.53v-42.86h62.31v41.18h72.76v-39.92l-106.22-39.5c-21.75-9.67-28.86-20.17-28.86-47.07v-46.23c0-33.2 17.98-46.23 48.09-46.23h99.11c38.89 0 50.18 19.33 50.18 56.73v34.46h-62.31v-36.98h-72.76v35.3l106.22 38.66c22.58 9.25 28.85 19.75 28.85 48.33v43.28z"/><path d="m509.83 212.66h-68.58v-63.45h200.73v63.45h-68.58v209.7h-63.56v-209.7z"/><path d="m690.97 422.35v-273.15h157.65c28.44 0 39.31 16.39 39.31 50.01v94.13c0 27.73-7.95 42.02-27.18 46.22l27.6 82.79h-63.14l-25.09-79.84h-46v79.84h-63.14zm134.65-134.05v-84.89h-71.51v84.89z"/><path d="m1626.12 212.66h-68.58v-63.45h200.73s0 63.45 0 63.45h-68.58v209.7h-63.56v-209.7z"/><path d="m937.34 254.05h530.1v63.45h-530.1z"/><path d="m937.34 358.9h571.19v63.45h-571.19z"/><path d="m937.34 149.2h571.19v63.45h-571.19z"/><path d="m2705.84 345.06h12.3v76.25h-12.3z"/><path d="m2755.69 345.06h10.43l54.61 58.03v-58.03h12.3v76.25h-10.41l-54.62-58.03v58.03h-12.3v-76.25z"/><path d="m2864.56 383.18c0-21.57 17.94-39.17 39.41-39.17 11.46 0 20.84 4.4 27.73 11.1l-8.34 8.38c-4.8-5.23-11.47-8.38-19.38-8.38-15.43 0-26.9 12.57-26.9 28.07s11.47 28.07 26.9 28.07c7.71 0 14.58-3.35 19.38-8.59l8.13 8.17c-7.08 7.12-16.88 11.52-27.51 11.52-23.14 0-39.41-15.92-39.41-39.17z"/><path d="m1860.66 149.2h44.05v234.13h116.49v39.02h-160.55v-273.15z"/><path d="m2190.12 149.2h38.84l116.49 273.15h-43.31l-16.43-39.02h-152.33l-15.69 39.02h-44.05l116.49-273.15zm79.16 195.11-59.74-144.08-59.74 144.08z"/><path d="m2317.53 149.2h47.04l89.61 219.87 35.84-93.05-52.27-126.82h47.05l85.87 219.87 88.87-219.87h46.3l-116.5 273.15h-38.82l-38.09-93.05-39.58 93.05h-38.84l-116.49-273.15z"/><path d="m2974.91 421.57c-12.52 0-22.12-9.5-22.12-21.91s9.6-21.91 22.12-21.91 22.01 9.39 22.01 21.91-9.6 21.91-22.01 21.91zm0-38.63c-9.5 0-16.73 7.12-16.73 16.73s7.23 16.62 16.73 16.62 16.62-7.23 16.62-16.62-7.12-16.73-16.62-16.73zm5.07 29.02-5.83-8.52h-.65v8.2h-6.58v-23.96h8.09c4.32 0 9.06 2.81 9.06 7.99 0 2.37-1.62 4.75-3.56 6.04l5.4 7.01-5.94 3.24zm-5.4-18.77h-1.08v4.75h1.08c.97 0 2.37-.54 2.37-2.27 0-1.83-1.4-2.48-2.37-2.48z"/><path d="m2705.84 345.06h12.3v76.25h-12.3z"/><path d="m2755.69 345.06h10.43l54.61 58.03v-58.03h12.3v76.25h-10.41l-54.62-58.03v58.03h-12.3v-76.25z"/><path d="m2864.56 383.18c0-21.57 17.94-39.17 39.41-39.17 11.46 0 20.84 4.4 27.73 11.1l-8.34 8.38c-4.8-5.23-11.47-8.38-19.38-8.38-15.43 0-26.9 12.57-26.9 28.07s11.47 28.07 26.9 28.07c7.71 0 14.58-3.35 19.38-8.59l8.13 8.17c-7.08 7.12-16.88 11.52-27.51 11.52-23.14 0-39.41-15.92-39.41-39.17z"/><path d="m2976.96 421.57c-12.52 0-22.12-9.5-22.12-21.91s9.6-21.91 22.12-21.91 22.01 9.39 22.01 21.91-9.6 21.91-22.01 21.91zm0-38.63c-9.5 0-16.73 7.12-16.73 16.73s7.23 16.62 16.73 16.62 16.62-7.23 16.62-16.62-7.12-16.73-16.62-16.73zm5.07 29.02-5.83-8.52h-.65v8.2h-6.58v-23.96h8.09c4.32 0 9.06 2.81 9.06 7.99 0 2.37-1.62 4.75-3.56 6.04l5.4 7.01-5.94 3.24zm-5.4-18.77h-1.08v4.75h1.08c.97 0 2.37-.54 2.37-2.27 0-1.83-1.4-2.48-2.37-2.48z"/></g></svg>