<svg width="122" height="28" viewBox="0 0 122 28" fill="none" xmlns="http://www.w3.org/2000/svg">
<g clip-path="url(#clip0_69_2594)">
<path d="M13.5155 0.5C6.33227 0.5 0.508659 6.28539 0.508659 13.4236C0.507767 15.7444 1.13526 18.0205 2.32219 20.002L2.31716 19.9974L0 27.5L7.39314 24.8256C9.28386 25.8286 11.3851 26.3506 13.5172 26.3467C20.6987 26.3444 26.5217 20.559 26.5217 13.4236C26.5217 6.28823 20.6987 0.5 13.5155 0.5Z" fill="#76B2DE"/>
<path d="M0 27.5L7.27304 24.9348C7.27304 24.9348 10.7638 26.8118 14.2313 26.4728C14.2313 26.4728 18.8927 26.4276 22.4978 22.9038C22.4978 22.9038 25.1846 20.4172 25.9875 17.0941C25.9875 17.0941 26.2176 15.3765 23.1174 14.54C23.1174 14.54 23.4182 18.4436 19.6282 20.9112C19.6282 20.9112 15.5139 23.8769 10.9917 22.9043L7.81296 22.2223C7.81296 22.2223 4.46033 22.2223 0 27.5Z" fill="#346BB4"/>
<path d="M9.54846 13.7782C9.55782 14.1522 9.676 14.5149 9.88803 14.8205C10.1001 15.126 10.3964 15.3607 10.7395 15.4946C11.0826 15.6286 11.4571 15.6559 11.8154 15.5731C12.1738 15.4902 12.5 15.301 12.7526 15.0293C13.0052 14.7576 13.173 14.4157 13.2346 14.0469C13.2962 13.6781 13.2489 13.2989 13.0987 12.9575C12.9485 12.6161 12.7022 12.3277 12.3909 12.1289C12.0795 11.9301 11.7173 11.8298 11.35 11.8408C10.859 11.8555 10.3938 12.0676 10.0561 12.4307C9.71849 12.7938 9.53594 13.2783 9.54846 13.7782V13.7782Z" fill="#346BB4"/>
<path d="M14.3222 13.6852C14.3135 14.0591 14.414 14.4272 14.6109 14.743C14.8078 15.0587 15.0923 15.3079 15.4284 15.459C15.7645 15.61 16.1371 15.6562 16.4989 15.5916C16.8608 15.527 17.1957 15.3545 17.4613 15.096C17.7268 14.8376 17.911 14.5047 17.9907 14.1396C18.0703 13.7744 18.0417 13.3935 17.9085 13.0449C17.7753 12.6963 17.5435 12.3958 17.2425 12.1814C16.9414 11.967 16.5846 11.8484 16.2173 11.8405C15.9738 11.8347 15.7316 11.8778 15.5045 11.9674C15.2774 12.0569 15.0699 12.1913 14.8939 12.3626C14.7178 12.534 14.5767 12.739 14.4786 12.9659C14.3805 13.1929 14.3274 13.4373 14.3222 13.6852V13.6852Z" fill="#346BB4"/>
<path d="M38.8492 21.425C38.0291 21.4102 37.2985 21.2245 36.6573 20.8681C36.0161 20.4969 35.5166 19.992 35.1587 19.3534C34.8009 18.7 34.6219 17.965 34.6219 17.1482V6.05525C34.6219 5.84735 34.6816 5.684 34.8009 5.5652C34.9351 5.43155 35.0991 5.36473 35.2929 5.36473C35.5017 5.36473 35.6657 5.43155 35.785 5.5652C35.9192 5.684 35.9863 5.84735 35.9863 6.05525V17.1482C35.9863 18.0095 36.2547 18.7149 36.7915 19.2643C37.3283 19.7989 38.0217 20.0662 38.8716 20.0662H39.3637C39.5724 20.0662 39.7364 20.1331 39.8557 20.2667C39.9899 20.3855 40.057 20.5489 40.057 20.7568C40.057 20.9498 39.9899 21.1132 39.8557 21.2468C39.7364 21.3656 39.5724 21.425 39.3637 21.425H38.8492ZM32.8773 10.8889C32.6984 10.8889 32.5493 10.837 32.43 10.733C32.3256 10.6142 32.2734 10.4657 32.2734 10.2875C32.2734 10.1093 32.3256 9.96823 32.43 9.86428C32.5493 9.74548 32.6984 9.68608 32.8773 9.68608H38.9387C39.1176 9.68608 39.2593 9.74548 39.3637 9.86428C39.483 9.96823 39.5426 10.1093 39.5426 10.2875C39.5426 10.4657 39.483 10.6142 39.3637 10.733C39.2593 10.837 39.1176 10.8889 38.9387 10.8889H32.8773Z" fill="#346BB4"/>
<path d="M48.4517 21.5587C47.2588 21.5587 46.1852 21.2914 45.2309 20.7568C44.2915 20.2073 43.5459 19.4648 42.9942 18.5293C42.4574 17.5789 42.189 16.5171 42.189 15.3439C42.189 14.1559 42.4574 13.0942 42.9942 12.1586C43.5459 11.2082 44.2915 10.4657 45.2309 9.9311C46.1852 9.38165 47.2588 9.10693 48.4517 9.10693C49.6446 9.10693 50.7107 9.38165 51.6501 9.9311C52.5895 10.4657 53.3276 11.2082 53.8644 12.1586C54.4161 13.0942 54.692 14.1559 54.692 15.3439L54.1328 16.2349C54.1328 17.2447 53.8793 18.1506 53.3724 18.9525C52.8803 19.7544 52.2093 20.3929 51.3594 20.8681C50.5094 21.3285 49.5402 21.5587 48.4517 21.5587ZM48.4517 20.3113C49.3911 20.3113 50.2261 20.0959 50.9568 19.6653C51.7023 19.2198 52.2839 18.6258 52.7014 17.8833C53.1338 17.1259 53.35 16.2795 53.35 15.3439C53.35 14.3935 53.1338 13.5471 52.7014 12.8046C52.2839 12.0472 51.7023 11.4532 50.9568 11.0226C50.2261 10.5771 49.3911 10.3543 48.4517 10.3543C47.5272 10.3543 46.6922 10.5771 45.9466 11.0226C45.2011 11.4532 44.6121 12.0472 44.1797 12.8046C43.7472 13.5471 43.531 14.3935 43.531 15.3439C43.531 16.2795 43.7472 17.1259 44.1797 17.8833C44.6121 18.6258 45.2011 19.2198 45.9466 19.6653C46.6922 20.0959 47.5272 20.3113 48.4517 20.3113ZM54.021 21.425C53.8272 21.425 53.6631 21.3656 53.5289 21.2468C53.4096 21.1132 53.35 20.9498 53.35 20.7568V16.6804L53.775 15.3439H54.692V20.7568C54.692 20.9498 54.6324 21.1132 54.5131 21.2468C54.3938 21.3656 54.2298 21.425 54.021 21.425Z" fill="#346BB4"/>
<path d="M58.4879 13.9852C58.5773 13.0348 58.8383 12.1957 59.2707 11.4681C59.7031 10.7256 60.2623 10.1464 60.9482 9.73063C61.6341 9.31483 62.3946 9.10693 63.2296 9.10693C63.7962 9.10693 64.2361 9.17375 64.5492 9.3074C64.8624 9.44105 64.9817 9.67865 64.9071 10.0202C64.8624 10.243 64.758 10.3766 64.594 10.4212C64.4299 10.4657 64.2287 10.4731 63.9901 10.4434C63.7664 10.3989 63.5129 10.3766 63.2296 10.3766C62.484 10.3766 61.8205 10.5325 61.239 10.8444C60.6574 11.1562 60.2026 11.5869 59.8746 12.1363C59.5466 12.6709 59.3825 13.2872 59.3825 13.9852H58.4879ZM58.7115 21.425C58.5177 21.425 58.3537 21.3656 58.2195 21.2468C58.1002 21.1132 58.0405 20.9498 58.0405 20.7568V9.90883C58.0405 9.70093 58.1002 9.53758 58.2195 9.41878C58.3537 9.29998 58.5177 9.24058 58.7115 9.24058C58.9203 9.24058 59.0843 9.29998 59.2036 9.41878C59.3229 9.53758 59.3825 9.70093 59.3825 9.90883V20.7568C59.3825 20.9498 59.3229 21.1132 59.2036 21.2468C59.0843 21.3656 58.9203 21.425 58.7115 21.425Z" fill="#346BB4"/>
<path d="M64.5152 26.6374C64.3213 26.6374 64.1573 26.5705 64.0231 26.4369C63.8889 26.3181 63.8218 26.1622 63.8218 25.9691C63.8218 25.7612 63.8889 25.5904 64.0231 25.4568C64.1573 25.338 64.3213 25.2786 64.5152 25.2786C65.2756 25.2786 65.9392 25.1152 66.5058 24.7885C67.0873 24.4618 67.5421 24.0089 67.8702 23.4298C68.1982 22.8506 68.3622 22.1898 68.3622 21.4473V9.90883C68.3622 9.70093 68.4219 9.53758 68.5412 9.41878C68.6754 9.29998 68.8394 9.24058 69.0332 9.24058C69.242 9.24058 69.406 9.29998 69.5253 9.41878C69.6595 9.53758 69.7266 9.70093 69.7266 9.90883V21.4473C69.7266 22.4571 69.5029 23.3481 69.0556 24.1203C68.6083 24.9073 67.9895 25.5236 67.1992 25.9691C66.4238 26.4146 65.5291 26.6374 64.5152 26.6374ZM69.0109 6.67895C68.7276 6.67895 68.4815 6.58243 68.2728 6.38938C68.0789 6.18148 67.982 5.92903 67.982 5.63203C67.982 5.29048 68.0864 5.03803 68.2951 4.87468C68.5188 4.69648 68.7648 4.60738 69.0332 4.60738C69.2867 4.60738 69.5178 4.69648 69.7266 4.87468C69.9503 5.03803 70.0621 5.29048 70.0621 5.63203C70.0621 5.92903 69.9577 6.18148 69.749 6.38938C69.5551 6.58243 69.3091 6.67895 69.0109 6.67895Z" fill="#346BB4"/>
<path d="M75.3223 21.425C75.1284 21.425 74.9644 21.3656 74.8302 21.2468C74.7109 21.1132 74.6513 20.9498 74.6513 20.7568V9.90883C74.6513 9.70093 74.7109 9.53758 74.8302 9.41878C74.9644 9.29998 75.1284 9.24058 75.3223 9.24058C75.531 9.24058 75.6951 9.29998 75.8143 9.41878C75.9336 9.53758 75.9933 9.70093 75.9933 9.90883V20.7568C75.9933 20.9498 75.9336 21.1132 75.8143 21.2468C75.6951 21.3656 75.531 21.425 75.3223 21.425ZM75.2999 6.67895C75.0166 6.67895 74.7706 6.58243 74.5618 6.38938C74.368 6.18148 74.2711 5.92903 74.2711 5.63203C74.2711 5.29048 74.3754 5.03803 74.5842 4.87468C74.8079 4.69648 75.0539 4.60738 75.3223 4.60738C75.5758 4.60738 75.8069 4.69648 76.0156 4.87468C76.2393 5.03803 76.3511 5.29048 76.3511 5.63203C76.3511 5.92903 76.2468 6.18148 76.038 6.38938C75.8442 6.58243 75.5981 6.67895 75.2999 6.67895Z" fill="#346BB4"/>
<path d="M97.3148 21.425C97.121 21.425 96.957 21.3656 96.8228 21.2468C96.7035 21.1132 96.6438 20.9498 96.6438 20.7568V14.3193C96.6438 13.1758 96.3382 12.2403 95.7268 11.5126C95.1304 10.785 94.3475 10.4212 93.3783 10.4212C92.3494 10.4212 91.507 10.7627 90.8509 11.4458C90.2097 12.1141 89.904 13.0199 89.9338 14.1634H88.5918C88.6217 13.1387 88.8453 12.2477 89.2628 11.4904C89.6803 10.733 90.247 10.1464 90.9627 9.73063C91.6784 9.29998 92.4836 9.08465 93.3783 9.08465C94.2879 9.08465 95.0856 9.3074 95.7715 9.7529C96.4574 10.1984 96.9942 10.8147 97.3819 11.6017C97.7845 12.3888 97.9858 13.2946 97.9858 14.3193V20.7568C97.9858 20.9498 97.9262 21.1132 97.8069 21.2468C97.6876 21.3656 97.5236 21.425 97.3148 21.425ZM81.1437 21.425C80.9499 21.425 80.7859 21.3656 80.6517 21.2468C80.5324 21.1132 80.4727 20.9498 80.4727 20.7568V9.90883C80.4727 9.70093 80.5324 9.53758 80.6517 9.41878C80.7859 9.29998 80.9499 9.24058 81.1437 9.24058C81.3525 9.24058 81.5165 9.29998 81.6358 9.41878C81.7551 9.53758 81.8147 9.70093 81.8147 9.90883V20.7568C81.8147 20.9498 81.7551 21.1132 81.6358 21.2468C81.5165 21.3656 81.3525 21.425 81.1437 21.425ZM89.2628 21.425C89.069 21.425 88.905 21.3656 88.7708 21.2468C88.6515 21.1132 88.5918 20.9498 88.5918 20.7568V14.3193C88.5918 13.1758 88.2862 12.2403 87.6748 11.5126C87.0784 10.785 86.2955 10.4212 85.3263 10.4212C84.2974 10.4212 83.455 10.7479 82.7989 11.4013C82.1428 12.0547 81.8147 12.9011 81.8147 13.9406H80.6964C80.7411 12.9902 80.9648 12.1512 81.3674 11.4235C81.7849 10.6959 82.3366 10.1242 83.0225 9.70835C83.7084 9.29255 84.4764 9.08465 85.3263 9.08465C86.2359 9.08465 87.0336 9.3074 87.7195 9.7529C88.4054 10.1984 88.9422 10.8147 89.3299 11.6017C89.7325 12.3888 89.9338 13.2946 89.9338 14.3193V20.7568C89.9338 20.9498 89.8742 21.1132 89.7549 21.2468C89.6356 21.3656 89.4716 21.425 89.2628 21.425Z" fill="#346BB4"/>
<path d="M104.251 21.425C103.685 21.425 103.178 21.2691 102.73 20.9572C102.298 20.6454 101.955 20.2147 101.701 19.6653C101.463 19.1158 101.344 18.4773 101.344 17.7496V4.69648C101.344 4.48858 101.403 4.32523 101.523 4.20643C101.657 4.08763 101.821 4.02823 102.015 4.02823C102.223 4.02823 102.387 4.08763 102.507 4.20643C102.626 4.32523 102.686 4.48858 102.686 4.69648V17.7496C102.686 18.4327 102.827 18.997 103.111 19.4425C103.409 19.8732 103.789 20.0885 104.251 20.0885H104.81C104.974 20.0885 105.109 20.1479 105.213 20.2667C105.317 20.3855 105.37 20.5489 105.37 20.7568C105.37 20.9498 105.31 21.1132 105.191 21.2468C105.071 21.3656 104.907 21.425 104.699 21.425H104.251Z" fill="#346BB4"/>
<path d="M109.855 26.7042C109.765 26.7042 109.661 26.6819 109.542 26.6374C109.139 26.474 109.027 26.1993 109.206 25.8132L116.721 9.59698C116.9 9.22573 117.176 9.11435 117.549 9.26285C117.952 9.4262 118.063 9.70093 117.884 10.087L110.369 26.3032C110.235 26.5705 110.064 26.7042 109.855 26.7042ZM112.226 21.1354C112.032 21.2245 111.86 21.2468 111.711 21.2023C111.562 21.1577 111.443 21.0389 111.353 20.8459L106.455 10.1539C106.366 9.9608 106.343 9.79003 106.388 9.64153C106.433 9.49303 106.552 9.37423 106.746 9.28513C106.94 9.19603 107.111 9.17375 107.26 9.2183C107.409 9.26285 107.529 9.38165 107.618 9.5747L112.516 20.2667C112.606 20.4598 112.628 20.6305 112.584 20.779C112.539 20.9275 112.42 21.0463 112.226 21.1354Z" fill="#346BB4"/>
</g>
<defs>
<clipPath id="clip0_69_2594">
<rect width="122" height="27" fill="white" transform="translate(0 0.5)"/>
</clipPath>
</defs>
</svg>
